<?xml version="1.0" encoding="UTF-8" standalone="no"?>
<!DOCTYPE svg PUBLIC "-//W3C//DTD SVG 1.1//EN"
 "http://www.w3.org/Graphics/SVG/1.1/DTD/svg11.dtd">
<!-- Generated by graphviz version 2.47.0 (20210316.0004)
 -->
<!-- Title: dependencies Pages: 1 -->
<svg width="755pt" height="284pt"
 viewBox="0.00 0.00 755.00 284.00" xmlns="http://www.w3.org/2000/svg" xmlns:xlink="http://www.w3.org/1999/xlink">
<g id="graph0" class="graph" transform="scale(1 1) rotate(0) translate(4 280)">
<title>dependencies</title>
<polygon fill="white" stroke="transparent" points="-4,4 -4,-280 751,-280 751,4 -4,4"/>
<text text-anchor="start" x="352.51" y="-42.4" font-family="Times-12" font-weight="bold" font-size="14.00">Legend</text>
<polygon fill="#ffffb3" stroke="transparent" points="139.5,-10 139.5,-30 159.5,-30 159.5,-10 139.5,-10"/>
<text text-anchor="start" x="163.13" y="-15.4" font-family="Times-12" font-size="14.00"> &#160;Declarations</text>
<polygon fill="#8dd3c7" stroke="transparent" points="252.5,-10 252.5,-30 272.5,-30 272.5,-10 252.5,-10"/>
<text text-anchor="start" x="276.23" y="-15.4" font-family="Times-12" font-size="14.00"> &#160;Module</text>
<polygon fill="#80b1d3" stroke="transparent" points="338.5,-10 338.5,-30 358.5,-30 358.5,-10 338.5,-10"/>
<text text-anchor="start" x="362.28" y="-15.4" font-family="Times-12" font-size="14.00"> &#160;Bootstrap</text>
<polygon fill="#fdb462" stroke="transparent" points="435.5,-10 435.5,-30 455.5,-30 455.5,-10 435.5,-10"/>
<text text-anchor="start" x="459.17" y="-15.4" font-family="Times-12" font-size="14.00"> &#160;Providers</text>
<polygon fill="#fb8072" stroke="transparent" points="531.5,-10 531.5,-30 551.5,-30 551.5,-10 531.5,-10"/>
<text text-anchor="start" x="555.23" y="-15.4" font-family="Times-12" font-size="14.00"> &#160;Exports</text>
<g id="clust1" class="cluster">
<title>cluster_AppModule</title>
<polygon fill="none" stroke="black" stroke-dasharray="1,5" points="8,-70 8,-268 739,-268 739,-70 8,-70"/>
</g>
<g id="clust2" class="cluster">
<title>cluster_AppModule_declarations</title>
<polygon fill="none" stroke="black" points="168,-78 168,-130 731,-130 731,-78 168,-78"/>
</g>
<g id="clust7" class="cluster">
<title>cluster_AppModule_imports</title>
<polygon fill="none" stroke="black" points="16,-78 16,-130 160,-130 160,-78 16,-78"/>
</g>
<g id="clust9" class="cluster">
<title>cluster_AppModule_bootstrap</title>
<polygon fill="none" stroke="black" points="311,-208 311,-260 435,-260 435,-208 311,-208"/>
</g>
<!-- AppComponent -->
<g id="node1" class="node">
<title>AppComponent</title>
<polygon fill="#ffffb3" stroke="black" points="722.94,-122 617.06,-122 617.06,-86 722.94,-86 722.94,-122"/>
<text text-anchor="middle" x="670" y="-99.8" font-family="Times,serif" font-size="14.00">AppComponent</text>
</g>
<!-- AppModule -->
<g id="node5" class="node">
<title>AppModule</title>
<polygon fill="#8dd3c7" stroke="black" points="414.66,-187 411.66,-191 390.66,-191 387.66,-187 331.34,-187 331.34,-151 414.66,-151 414.66,-187"/>
<text text-anchor="middle" x="373" y="-164.8" font-family="Times,serif" font-size="14.00">AppModule</text>
</g>
<!-- AppComponent&#45;&gt;AppModule -->
<g id="edge1" class="edge">
<title>AppComponent&#45;&gt;AppModule</title>
<path fill="none" stroke="black" d="M670,-122.28C670,-143.32 670,-175 670,-175 670,-175 424.92,-175 424.92,-175"/>
<polygon fill="black" stroke="black" points="424.92,-171.5 414.92,-175 424.92,-178.5 424.92,-171.5"/>
</g>
<!-- FilmDetailComponent -->
<g id="node2" class="node">
<title>FilmDetailComponent</title>
<polygon fill="#ffffb3" stroke="black" points="598.99,-122 457.01,-122 457.01,-86 598.99,-86 598.99,-122"/>
<text text-anchor="middle" x="528" y="-99.8" font-family="Times,serif" font-size="14.00">FilmDetailComponent</text>
</g>
<!-- FilmDetailComponent&#45;&gt;AppModule -->
<g id="edge2" class="edge">
<title>FilmDetailComponent&#45;&gt;AppModule</title>
<path fill="none" stroke="black" d="M528,-122.02C528,-139.37 528,-163 528,-163 528,-163 424.95,-163 424.95,-163"/>
<polygon fill="black" stroke="black" points="424.95,-159.5 414.95,-163 424.95,-166.5 424.95,-159.5"/>
</g>
<!-- FilmEditComponent -->
<g id="node3" class="node">
<title>FilmEditComponent</title>
<polygon fill="#ffffb3" stroke="black" points="438.62,-122 307.38,-122 307.38,-86 438.62,-86 438.62,-122"/>
<text text-anchor="middle" x="373" y="-99.8" font-family="Times,serif" font-size="14.00">FilmEditComponent</text>
</g>
<!-- FilmEditComponent&#45;&gt;AppModule -->
<g id="edge3" class="edge">
<title>FilmEditComponent&#45;&gt;AppModule</title>
<path fill="none" stroke="black" d="M373,-122.11C373,-122.11 373,-140.99 373,-140.99"/>
<polygon fill="black" stroke="black" points="369.5,-140.99 373,-150.99 376.5,-140.99 369.5,-140.99"/>
</g>
<!-- FilmsComponent -->
<g id="node4" class="node">
<title>FilmsComponent</title>
<polygon fill="#ffffb3" stroke="black" points="289.73,-122 176.27,-122 176.27,-86 289.73,-86 289.73,-122"/>
<text text-anchor="middle" x="233" y="-99.8" font-family="Times,serif" font-size="14.00">FilmsComponent</text>
</g>
<!-- FilmsComponent&#45;&gt;AppModule -->
<g id="edge4" class="edge">
<title>FilmsComponent&#45;&gt;AppModule</title>
<path fill="none" stroke="black" d="M233,-122.02C233,-139.37 233,-163 233,-163 233,-163 321,-163 321,-163"/>
<polygon fill="black" stroke="black" points="321,-166.5 331,-163 321,-159.5 321,-166.5"/>
</g>
<!-- AppComponent  -->
<g id="node7" class="node">
<title>AppComponent </title>
<polygon fill="#80b1d3" stroke="black" points="427.44,-252 318.56,-252 318.56,-216 427.44,-216 427.44,-252"/>
<text text-anchor="middle" x="373" y="-229.8" font-family="Times,serif" font-size="14.00">AppComponent </text>
</g>
<!-- AppModule&#45;&gt;AppComponent  -->
<g id="edge6" class="edge">
<title>AppModule&#45;&gt;AppComponent </title>
<path fill="none" stroke="black" stroke-dasharray="1,5" d="M373,-187.11C373,-187.11 373,-205.99 373,-205.99"/>
<polygon fill="black" stroke="black" points="369.5,-205.99 373,-215.99 376.5,-205.99 369.5,-205.99"/>
</g>
<!-- AppRoutingModule -->
<g id="node6" class="node">
<title>AppRoutingModule</title>
<polygon fill="#8dd3c7" stroke="black" points="152.27,-122 149.27,-126 128.27,-126 125.27,-122 23.73,-122 23.73,-86 152.27,-86 152.27,-122"/>
<text text-anchor="middle" x="88" y="-99.8" font-family="Times,serif" font-size="14.00">AppRoutingModule</text>
</g>
<!-- AppRoutingModule&#45;&gt;AppModule -->
<g id="edge5" class="edge">
<title>AppRoutingModule&#45;&gt;AppModule</title>
<path fill="none" stroke="black" d="M88,-122.28C88,-143.32 88,-175 88,-175 88,-175 321.25,-175 321.25,-175"/>
<polygon fill="black" stroke="black" points="321.25,-178.5 331.25,-175 321.25,-171.5 321.25,-178.5"/>
</g>
</g>
</svg>
