<?xml version="1.0" encoding="UTF-8" standalone="no"?>
<!DOCTYPE svg PUBLIC "-//W3C//DTD SVG 1.1//EN"
 "http://www.w3.org/Graphics/SVG/1.1/DTD/svg11.dtd">
<!-- Generated by graphviz version 2.47.0 (20210316.0004)
 -->
<!-- Title: dependencies Pages: 1 -->
<svg width="755pt" height="284pt"
 viewBox="0.00 0.00 755.00 284.00" xmlns="http://www.w3.org/2000/svg" xmlns:xlink="http://www.w3.org/1999/xlink">
<g id="graph0" class="graph" transform="scale(1 1) rotate(0) translate(4 280)">
<title>dependencies</title>
<polygon fill="white" stroke="transparent" points="-4,4 -4,-280 751,-280 751,4 -4,4"/>
<text text-anchor="start" x="352.51" y="-42.4" font-family="Times-12" font-weight="bold" font-size="14.00">Legend</text>
<polygon fill="#ffffb3" stroke="transparent" points="139.5,-10 139.5,-30 159.5,-30 159.5,-10 139.5,-10"/>
<text text-anchor="start" x="163.13" y="-15.4" font-family="Times-12" font-size="14.00"> &#160;Declarations</text>
<polygon fill="#8dd3c7" stroke="transparent" points="252.5,-10 252.5,-30 272.5,-30 272.5,-10 252.5,-10"/>
<text text-anchor="start" x="276.23" y="-15.4" font-family="Times-12" font-size="14.00"> &#160;Module</text>
<polygon fill="#80b1d3" stroke="transparent" points="338.5,-10 338.5,-30 358.5,-30 358.5,-10 338.5,-10"/>
<text text-anchor="start" x="362.28" y="-15.4" font-family="Times-12" font-size="14.00"> &#160;Bootstrap</text>
<polygon fill="#fdb462" stroke="transparent" points="435.5,-10 435.5,-30 455.5,-30 455.5,-10 435.5,-10"/>
<text text-anchor="start" x="459.17" y="-15.4" font-family="Times-12" font-size="14.00"> &#160;Providers</text>
<polygon fill="#fb8072" stroke="transparent" points="531.5,-10 531.5,-30 551.5,-30 551.5,-10 531.5,-10"/>
<text text-anchor="start" x="555.23" y="-15.4" font-family="Times-12" font-size="14.00"> &#160;Exports</text>
<g id="clust1" class="cluster">
<title>cluster_AppModule</title>
<polygon fill="none" stroke="black" stroke-dasharray="1,5" points="8,-70 8,-268 739,-268 739,-70 8,-70"/>
</g>
<g id="clust7" class="cluster">
<title>cluster_AppModule_imports</title>
<polygon fill="none" stroke="black" points="587,-78 587,-130 731,-130 731,-78 587,-78"/>
</g>
<g id="clust9" class="cluster">
<title>cluster_AppModule_bootstrap</title>
<polygon fill="none" stroke="black" points="314,-208 314,-260 438,-260 438,-208 314,-208"/>
</g>
<g id="clust2" class="cluster">
<title>cluster_AppModule_declarations</title>
<polygon fill="none" stroke="black" points="16,-78 16,-130 579,-130 579,-78 16,-78"/>
</g>
<!-- AppComponent -->
<g id="node1" class="node">
<title>AppComponent</title>
<polygon fill="#ffffb3" stroke="black" points="570.94,-122 465.06,-122 465.06,-86 570.94,-86 570.94,-122"/>
<text text-anchor="middle" x="518" y="-99.8" font-family="Times,serif" font-size="14.00">AppComponent</text>
</g>
<!-- AppModule -->
<g id="node5" class="node">
<title>AppModule</title>
<polygon fill="#8dd3c7" stroke="black" points="417.66,-187 414.66,-191 393.66,-191 390.66,-187 334.34,-187 334.34,-151 417.66,-151 417.66,-187"/>
<text text-anchor="middle" x="376" y="-164.8" font-family="Times,serif" font-size="14.00">AppModule</text>
</g>
<!-- AppComponent&#45;&gt;AppModule -->
<g id="edge1" class="edge">
<title>AppComponent&#45;&gt;AppModule</title>
<path fill="none" stroke="black" d="M518,-122.02C518,-139.37 518,-163 518,-163 518,-163 427.84,-163 427.84,-163"/>
<polygon fill="black" stroke="black" points="427.84,-159.5 417.84,-163 427.84,-166.5 427.84,-159.5"/>
</g>
<!-- FilmDetailComponent -->
<g id="node2" class="node">
<title>FilmDetailComponent</title>
<polygon fill="#ffffb3" stroke="black" points="446.99,-122 305.01,-122 305.01,-86 446.99,-86 446.99,-122"/>
<text text-anchor="middle" x="376" y="-99.8" font-family="Times,serif" font-size="14.00">FilmDetailComponent</text>
</g>
<!-- FilmDetailComponent&#45;&gt;AppModule -->
<g id="edge2" class="edge">
<title>FilmDetailComponent&#45;&gt;AppModule</title>
<path fill="none" stroke="black" d="M376,-122.11C376,-122.11 376,-140.99 376,-140.99"/>
<polygon fill="black" stroke="black" points="372.5,-140.99 376,-150.99 379.5,-140.99 372.5,-140.99"/>
</g>
<!-- FilmEditComponent -->
<g id="node3" class="node">
<title>FilmEditComponent</title>
<polygon fill="#ffffb3" stroke="black" points="286.62,-122 155.38,-122 155.38,-86 286.62,-86 286.62,-122"/>
<text text-anchor="middle" x="221" y="-99.8" font-family="Times,serif" font-size="14.00">FilmEditComponent</text>
</g>
<!-- FilmEditComponent&#45;&gt;AppModule -->
<g id="edge3" class="edge">
<title>FilmEditComponent&#45;&gt;AppModule</title>
<path fill="none" stroke="black" d="M221,-122.02C221,-139.37 221,-163 221,-163 221,-163 324.05,-163 324.05,-163"/>
<polygon fill="black" stroke="black" points="324.05,-166.5 334.05,-163 324.05,-159.5 324.05,-166.5"/>
</g>
<!-- FilmsComponent -->
<g id="node4" class="node">
<title>FilmsComponent</title>
<polygon fill="#ffffb3" stroke="black" points="137.73,-122 24.27,-122 24.27,-86 137.73,-86 137.73,-122"/>
<text text-anchor="middle" x="81" y="-99.8" font-family="Times,serif" font-size="14.00">FilmsComponent</text>
</g>
<!-- FilmsComponent&#45;&gt;AppModule -->
<g id="edge4" class="edge">
<title>FilmsComponent&#45;&gt;AppModule</title>
<path fill="none" stroke="black" d="M81,-122.28C81,-143.32 81,-175 81,-175 81,-175 324.05,-175 324.05,-175"/>
<polygon fill="black" stroke="black" points="324.05,-178.5 334.05,-175 324.05,-171.5 324.05,-178.5"/>
</g>
<!-- AppComponent  -->
<g id="node7" class="node">
<title>AppComponent </title>
<polygon fill="#80b1d3" stroke="black" points="430.44,-252 321.56,-252 321.56,-216 430.44,-216 430.44,-252"/>
<text text-anchor="middle" x="376" y="-229.8" font-family="Times,serif" font-size="14.00">AppComponent </text>
</g>
<!-- AppModule&#45;&gt;AppComponent  -->
<g id="edge6" class="edge">
<title>AppModule&#45;&gt;AppComponent </title>
<path fill="none" stroke="black" stroke-dasharray="1,5" d="M376,-187.11C376,-187.11 376,-205.99 376,-205.99"/>
<polygon fill="black" stroke="black" points="372.5,-205.99 376,-215.99 379.5,-205.99 372.5,-205.99"/>
</g>
<!-- AppRoutingModule -->
<g id="node6" class="node">
<title>AppRoutingModule</title>
<polygon fill="#8dd3c7" stroke="black" points="723.27,-122 720.27,-126 699.27,-126 696.27,-122 594.73,-122 594.73,-86 723.27,-86 723.27,-122"/>
<text text-anchor="middle" x="659" y="-99.8" font-family="Times,serif" font-size="14.00">AppRoutingModule</text>
</g>
<!-- AppRoutingModule&#45;&gt;AppModule -->
<g id="edge5" class="edge">
<title>AppRoutingModule&#45;&gt;AppModule</title>
<path fill="none" stroke="black" d="M659,-122.28C659,-143.32 659,-175 659,-175 659,-175 427.76,-175 427.76,-175"/>
<polygon fill="black" stroke="black" points="427.76,-171.5 417.76,-175 427.76,-178.5 427.76,-171.5"/>
</g>
</g>
</svg>
